<mxfile host="app.diagrams.net" modified="2023-09-10T14:13:55.140Z" agent="Mozilla/5.0 (Macintosh; Intel Mac OS X 10_15_7) AppleWebKit/537.36 (KHTML, like Gecko) Chrome/114.0.0.0 Safari/537.36" etag="RcR8b5B3PjWnzDkX5EMR" version="21.7.2" type="github">
  <diagram id="C5RBs43oDa-KdzZeNtuy" name="Page-1">
    <mxGraphModel dx="882" dy="600" grid="1" gridSize="10" guides="1" tooltips="1" connect="1" arrows="1" fold="1" page="1" pageScale="1" pageWidth="827" pageHeight="1169" math="0" shadow="0">
      <root>
        <mxCell id="WIyWlLk6GJQsqaUBKTNV-0" />
        <mxCell id="WIyWlLk6GJQsqaUBKTNV-1" parent="WIyWlLk6GJQsqaUBKTNV-0" />
        <mxCell id="HxYIgjmsuRkptYCEnA3s-15" style="edgeStyle=orthogonalEdgeStyle;rounded=0;orthogonalLoop=1;jettySize=auto;html=1;entryX=0.5;entryY=0;entryDx=0;entryDy=0;" edge="1" parent="WIyWlLk6GJQsqaUBKTNV-1" source="HxYIgjmsuRkptYCEnA3s-1" target="HxYIgjmsuRkptYCEnA3s-2">
          <mxGeometry relative="1" as="geometry" />
        </mxCell>
        <mxCell id="HxYIgjmsuRkptYCEnA3s-1" value="Start function" style="rounded=1;whiteSpace=wrap;html=1;" vertex="1" parent="WIyWlLk6GJQsqaUBKTNV-1">
          <mxGeometry x="220" y="40" width="125" height="50" as="geometry" />
        </mxCell>
        <mxCell id="HxYIgjmsuRkptYCEnA3s-18" style="edgeStyle=orthogonalEdgeStyle;rounded=0;orthogonalLoop=1;jettySize=auto;html=1;entryX=0.5;entryY=0;entryDx=0;entryDy=0;" edge="1" parent="WIyWlLk6GJQsqaUBKTNV-1" source="HxYIgjmsuRkptYCEnA3s-2" target="HxYIgjmsuRkptYCEnA3s-3">
          <mxGeometry relative="1" as="geometry" />
        </mxCell>
        <mxCell id="HxYIgjmsuRkptYCEnA3s-2" value="user_input : str" style="shape=parallelogram;perimeter=parallelogramPerimeter;whiteSpace=wrap;html=1;fixedSize=1;" vertex="1" parent="WIyWlLk6GJQsqaUBKTNV-1">
          <mxGeometry x="222.5" y="120" width="120" height="50" as="geometry" />
        </mxCell>
        <mxCell id="HxYIgjmsuRkptYCEnA3s-19" value="" style="edgeStyle=orthogonalEdgeStyle;rounded=0;orthogonalLoop=1;jettySize=auto;html=1;" edge="1" parent="WIyWlLk6GJQsqaUBKTNV-1" source="HxYIgjmsuRkptYCEnA3s-3" target="HxYIgjmsuRkptYCEnA3s-4">
          <mxGeometry relative="1" as="geometry" />
        </mxCell>
        <mxCell id="HxYIgjmsuRkptYCEnA3s-3" value="total = 0" style="rounded=0;whiteSpace=wrap;html=1;" vertex="1" parent="WIyWlLk6GJQsqaUBKTNV-1">
          <mxGeometry x="232.5" y="200" width="100" height="40" as="geometry" />
        </mxCell>
        <mxCell id="HxYIgjmsuRkptYCEnA3s-21" value="" style="edgeStyle=orthogonalEdgeStyle;rounded=0;orthogonalLoop=1;jettySize=auto;html=1;" edge="1" parent="WIyWlLk6GJQsqaUBKTNV-1" source="HxYIgjmsuRkptYCEnA3s-4" target="HxYIgjmsuRkptYCEnA3s-5">
          <mxGeometry relative="1" as="geometry" />
        </mxCell>
        <mxCell id="HxYIgjmsuRkptYCEnA3s-22" style="edgeStyle=orthogonalEdgeStyle;rounded=0;orthogonalLoop=1;jettySize=auto;html=1;entryX=0.5;entryY=0;entryDx=0;entryDy=0;" edge="1" parent="WIyWlLk6GJQsqaUBKTNV-1" source="HxYIgjmsuRkptYCEnA3s-4" target="HxYIgjmsuRkptYCEnA3s-20">
          <mxGeometry relative="1" as="geometry">
            <Array as="points">
              <mxPoint x="440" y="300" />
              <mxPoint x="440" y="580" />
              <mxPoint x="283" y="580" />
            </Array>
          </mxGeometry>
        </mxCell>
        <mxCell id="HxYIgjmsuRkptYCEnA3s-23" value="end of loop" style="edgeLabel;html=1;align=center;verticalAlign=middle;resizable=0;points=[];" vertex="1" connectable="0" parent="HxYIgjmsuRkptYCEnA3s-22">
          <mxGeometry x="-0.8728" y="1" relative="1" as="geometry">
            <mxPoint as="offset" />
          </mxGeometry>
        </mxCell>
        <mxCell id="HxYIgjmsuRkptYCEnA3s-4" value="loop for let in user_input" style="shape=hexagon;perimeter=hexagonPerimeter2;whiteSpace=wrap;html=1;fixedSize=1;" vertex="1" parent="WIyWlLk6GJQsqaUBKTNV-1">
          <mxGeometry x="203.75" y="270" width="157.5" height="60" as="geometry" />
        </mxCell>
        <mxCell id="HxYIgjmsuRkptYCEnA3s-7" style="edgeStyle=orthogonalEdgeStyle;rounded=0;orthogonalLoop=1;jettySize=auto;html=1;entryX=0.5;entryY=0;entryDx=0;entryDy=0;" edge="1" parent="WIyWlLk6GJQsqaUBKTNV-1" source="HxYIgjmsuRkptYCEnA3s-5" target="HxYIgjmsuRkptYCEnA3s-6">
          <mxGeometry relative="1" as="geometry" />
        </mxCell>
        <mxCell id="HxYIgjmsuRkptYCEnA3s-8" value="Yes" style="edgeLabel;html=1;align=center;verticalAlign=middle;resizable=0;points=[];" vertex="1" connectable="0" parent="HxYIgjmsuRkptYCEnA3s-7">
          <mxGeometry x="-0.1549" y="2" relative="1" as="geometry">
            <mxPoint as="offset" />
          </mxGeometry>
        </mxCell>
        <mxCell id="HxYIgjmsuRkptYCEnA3s-9" style="edgeStyle=orthogonalEdgeStyle;rounded=0;orthogonalLoop=1;jettySize=auto;html=1;entryX=0;entryY=0.5;entryDx=0;entryDy=0;" edge="1" parent="WIyWlLk6GJQsqaUBKTNV-1" source="HxYIgjmsuRkptYCEnA3s-5" target="HxYIgjmsuRkptYCEnA3s-4">
          <mxGeometry relative="1" as="geometry">
            <Array as="points">
              <mxPoint x="282" y="460" />
              <mxPoint x="184" y="460" />
              <mxPoint x="184" y="300" />
            </Array>
          </mxGeometry>
        </mxCell>
        <mxCell id="HxYIgjmsuRkptYCEnA3s-10" value="No" style="edgeLabel;html=1;align=center;verticalAlign=middle;resizable=0;points=[];" vertex="1" connectable="0" parent="HxYIgjmsuRkptYCEnA3s-9">
          <mxGeometry x="-0.665" y="-1" relative="1" as="geometry">
            <mxPoint as="offset" />
          </mxGeometry>
        </mxCell>
        <mxCell id="HxYIgjmsuRkptYCEnA3s-5" value="let != &#39; &#39;" style="rhombus;whiteSpace=wrap;html=1;" vertex="1" parent="WIyWlLk6GJQsqaUBKTNV-1">
          <mxGeometry x="242.5" y="360" width="80" height="80" as="geometry" />
        </mxCell>
        <mxCell id="HxYIgjmsuRkptYCEnA3s-11" style="edgeStyle=orthogonalEdgeStyle;rounded=0;orthogonalLoop=1;jettySize=auto;html=1;entryX=0;entryY=0.5;entryDx=0;entryDy=0;" edge="1" parent="WIyWlLk6GJQsqaUBKTNV-1" source="HxYIgjmsuRkptYCEnA3s-6" target="HxYIgjmsuRkptYCEnA3s-4">
          <mxGeometry relative="1" as="geometry">
            <Array as="points">
              <mxPoint x="354" y="550" />
              <mxPoint x="184" y="550" />
              <mxPoint x="184" y="300" />
            </Array>
          </mxGeometry>
        </mxCell>
        <mxCell id="HxYIgjmsuRkptYCEnA3s-6" value="total += ord(let.lower()) - 96" style="rounded=0;whiteSpace=wrap;html=1;" vertex="1" parent="WIyWlLk6GJQsqaUBKTNV-1">
          <mxGeometry x="294" y="480" width="120" height="40" as="geometry" />
        </mxCell>
        <mxCell id="HxYIgjmsuRkptYCEnA3s-20" value="return total" style="rounded=1;whiteSpace=wrap;html=1;" vertex="1" parent="WIyWlLk6GJQsqaUBKTNV-1">
          <mxGeometry x="220" y="610" width="125" height="50" as="geometry" />
        </mxCell>
      </root>
    </mxGraphModel>
  </diagram>
</mxfile>
